# xmcd CD database file
#
# Track frame offsets:
#	150
#	27315
#	47778
#	80958
#	108695
#	129910
#	159023
#	191013
#
# Disc length: 2979 seconds
#
# Revision: 5
# Processed by: cddbd v1.5.1PL0 Copyright (c) Steve Scherf et al.
# Submitted via: CD2WAV32(JP) R3.22
#
DISCID=650ba108
DTITLE=Bill Evans - Consecration - The Last [Disc1]
DYEAR=1980
DGENRE=Jazz
TTITLE0=You And Night And The Music
TTITLE1=Emily
TTITLE2=The Two Lonely People
TTITLE3=I Do It for Your Love
TTITLE4=Re: Person I Knew
TTITLE5=Polka Dots And Moonbeams
TTITLE6=Knit For Mary F.
TTITLE7=Someday My Prince Will Come
EXTD=
EXTT0=
EXTT1=
EXTT2=
EXTT3=
EXTT4=
EXTT5=
EXTT6=
EXTT7=
PLAYORDER=
